<?xml version="1.0" standalone="no"?>
<!DOCTYPE svg PUBLIC "-//W3C//DTD SVG 20010904//EN"
 "http://www.w3.org/TR/2001/REC-SVG-20010904/DTD/svg10.dtd">
<svg version="1.0" xmlns="http://www.w3.org/2000/svg"
 width="200.000000pt" height="200.000000pt" viewBox="0 0 200.000000 200.000000"
 preserveAspectRatio="xMidYMid meet">

<g transform="translate(0.000000,200.000000) scale(0.100000,-0.100000)"
fill="#000000" stroke="none">
<path d="M848 1976 c-210 -38 -394 -133 -539 -279 -272 -272 -360 -679 -225
-1038 91 -242 264 -432 497 -543 154 -74 235 -91 429 -91 125 0 181 5 228 18
334 91 583 318 695 634 38 105 61 277 52 388 -40 513 -438 901 -945 920 -72 3
-143 -1 -192 -9z m-256 -636 c35 -13 80 -41 112 -71 91 -83 126 -180 126 -352
0 -118 12 -162 57 -209 79 -82 232 -58 282 45 17 35 21 62 21 143 0 176 40
296 123 371 49 43 147 91 207 99 l45 6 49 -81 c86 -142 146 -334 146 -464 0
-82 -34 -141 -131 -231 -267 -247 -668 -311 -993 -157 -152 72 -294 188 -353
289 -22 37 -26 56 -25 108 4 149 61 319 161 477 35 58 37 58 76 54 22 -3 66
-14 97 -27z m457 -475 c30 -15 81 -70 81 -86 0 -5 -17 -28 -37 -50 -26 -27
-49 -41 -74 -45 -33 -6 -42 -2 -83 36 -25 23 -46 50 -46 60 0 24 84 100 110
100 12 0 34 -7 49 -15z"/>
<path d="M596 1038 c-36 -51 -5 -118 54 -118 59 0 90 67 54 118 -11 16 -25 22
-54 22 -29 0 -43 -6 -54 -22z"/>
<path d="M1316 1038 c-51 -73 35 -156 103 -100 28 22 31 75 6 102 -26 29 -89
27 -109 -2z"/>
</g>
</svg>
